<svg xmlns="http://www.w3.org/2000/svg" width="134.376" height="134.371" viewBox="0 0 134.376 134.371">
  <defs>
    <style>
      .cls-1 {
        fill: none;
        stroke: #000;
        stroke-linecap: round;
        stroke-linejoin: round;
        stroke-width: 10px;
      }
    </style>
  </defs>
  <g id="N" transform="translate(5 4.988)">
    <path id="_1" data-name="1" class="cls-1" d="M708.534,680.743s-5.829,7.589-11.848,10.964-8.257,2.605-12.582,2.2c-4.5-.933-13.571-5.351-13.571-14.772l.074-93.337c0-8.742,6.991-14.2,12.878-15.649,9.6-1.371,13.953,2.742,20.013,8.384l54.411,53.375" transform="translate(-670.534 -569.884)"/>
    <path id="_2" data-name="2" class="cls-1" d="M719.909,583.421s5.829-7.589,11.848-10.964,8.257-2.605,12.582-2.2c4.5.933,13.571,5.351,13.571,14.772l-.074,93.337c0,8.742-6.991,14.2-12.878,15.649-9.6,1.371-13.953-2.742-20.013-8.384l-54.411-53.375" transform="translate(-633.534 -569.884)"/>
  </g>
</svg>
